<svg height="48" viewBox="0 0 48 48" width="48" xmlns="http://www.w3.org/2000/svg"><path d="m16 2h-4.2c-.4-1.2-1.5-2-2.8-2-1.3 0-2.4.8-2.8 2h-4.2c-1.1 0-2 .9-2 2v16c0 1.1.9 2 2 2h14c1.1 0 2-.9 2-2v-16c0-1.1-.9-2-2-2zm-7-1c .4714 0 1 .5286 1 1 0 .4714-.4 1-1 1-.6 0-1-.5286-1-1 0-.4714.5286-1 1-1zm7 19h-14v-16h14z" fill="#206060" fill-rule="evenodd" transform="matrix(2 0 0 2 6 2)"/><path d="m14.873 14.9886v5.4066l5.4048 5.4046-5.4048 5.4065v5.4047l10.8111-10.8112zm9.1889 0v5.4066l5.4047 5.4046-5.4047 5.4065v5.4047l10.8111-10.8112z" fill="#802020" fill-rule="evenodd"/></svg>